# xmcd
#
# Track frame offsets: 
#        150
#        19005
#        36792
#        59452
#        76472
#        98692
#        120440
#        139045
#        155855
#        184257
#        207080
#
# Disc length: 2988 seconds
#
# Revision: 0
# Processed by: cddbd v1.5.2PL0 Copyright (c) Steve Scherf et al.
# Submitted via: ExactAudioCopyFreeDBPlugin 1.0
#
DISCID=8f0baa0b
DTITLE=Legion 7  - And On The 7th Day
DYEAR=1995
DGENRE=Dance
TTITLE0=Every Breath You Take
TTITLE1=I Want Your Love 
TTITLE2=Just A Dream 
TTITLE3=Brotherhood
TTITLE4=For The Next Man 
TTITLE5=Til Dawn
TTITLE6=50 Ways To Leave Your Lover 
TTITLE7=Be With You Tonite [Remix] 
TTITLE8=Every Breath You Take [Club]
TTITLE9=Drums Of Love [Remix] 
TTITLE10=The Wall 
EXTD=
EXTT0=
EXTT1=
EXTT2=
EXTT3=
EXTT4=
EXTT5=
EXTT6=
EXTT7=
EXTT8=
EXTT9=
EXTT10=
PLAYORDER=
